<?xml version="1.0" encoding="utf-8"?>
<!-- Generator: Adobe Illustrator 23.0.4, SVG Export Plug-In . SVG Version: 6.00 Build 0)  -->
<svg version="1.1" id="Layer_2" xmlns="http://www.w3.org/2000/svg" xmlns:xlink="http://www.w3.org/1999/xlink" x="0px" y="0px"
	 viewBox="0 0 54 50.2" style="enable-background:new 0 0 54 50.2;" xml:space="preserve">
<style type="text/css">
	.st0{fill:#00BAC1;}
	.st1{fill:#0C7175;}
	.st2{fill:#D1D3D4;}
</style>
<path class="st0" d="M0.2,11.3c0,0,1.7,1.8,4.1,2.8V8.9C4.2,8.9,0,8.7,0.2,11.3"/>
<path class="st1" d="M26.9,11.9c-0.3,0.6-2.2,2.4-5.9,3.6c-2.7,0.9-5.1,1.1-6.4,1.1c-0.7,0-1.1,0-1.1,0V34c0.2,0,0.3,0,0.5,0
	c6.1,0,8.9-3.3,8.9-3.3c-0.5,5.3-9.4,7.3-9.4,7.3v8.4c0,0,1-0.7,7.2-4.6c6.2-3.9,6.2-9.6,6.2-9.6v-9.7V11.9z M17.2,25.2
	c0,0,0.8-2.6,3.1-2.6c0.1,0,0.2,0,0.2,0c2.5,0.2,3.2,2.6,3.2,2.6s-1.4-1.1-3.3-1.2c0,0-0.1,0-0.1,0C18.5,24,17.2,25.2,17.2,25.2"/>
<path class="st0" d="M13.4,37.9c-9.5-2.3-9.4-7.3-9.4-7.3s3.3,3.5,9.4,3.3c0,0,0,0,0,0c0,0,0,0,0,0V16.6c0,0-0.4,0-1.1,0
	c-1.3,0-3.7-0.2-6.4-1.1c-3.7-1.2-5.7-3-5.9-3.6v20.1c0,0,0,5.7,6.2,9.6c6.2,3.9,7.2,4.6,7.2,4.6L13.4,37.9
	C13.4,37.9,13.4,37.9,13.4,37.9z M3.1,25.2c0,0,0.7-2.4,3.2-2.6l0.3,0c2.3,0,3.1,2.6,3.1,2.6S8.3,24,6.5,24l-0.1,0
	C4.5,24.1,3.1,25.2,3.1,25.2z"/>
<path class="st0" d="M26.3,38.5c0,0,2.8-5.4,9.4-2.7l7.5-17.2c-4-1.6-7.9-1.9-10.5-1.9c-2.1,0-3.5,0.2-3.5,0.2s-4,9.6-6.6,17
	c-2.6,7.4,6.6,16.2,6.6,16.2l5.4-11.3c0,0,0,0,0,0C30.7,37.2,26.3,38.5,26.3,38.5z M30.6,23.9c0,0-0.3,1.7,2.6,3.1
	c0.8,0.4,1.5,0.5,2,0.5c1.4,0,2-0.9,2-0.9s-1.1,2.1-3.2,2.1c-0.4,0-0.9-0.1-1.5-0.3C29.7,27,30.6,23.9,30.6,23.9z"/>
<path class="st1" d="M43.1,18.5l-3.7,8.6l-3.7,8.6c6.2,3.4,3.9,9,3.9,9s-1-3.8-5.1-6h0L29,50l0,0.1c0,0,0.9,0.1,2.4,0.1
	c3.8,0,11.3-0.7,14.1-5.6c3.9-6.8,8.5-16.1,8.5-16.1S50,22.2,43.1,18.5z M44.7,33.7c-0.4,0-0.8-0.1-1.3-0.2c0.1,0.5,0.3,1.3,0.8,2.2
	c0.2,0.4,0.3,0.8,0.3,1.1c0,0.9-0.7,1.4-1.3,1.4v0l0,0l0,0v0c-0.6,0-1.3-0.6-1.3-1.4c0-0.3,0.1-0.7,0.3-1.1c0.6-0.9,0.7-1.8,0.8-2.4
	l-0.2-0.1v0l-0.3-0.2c-1-0.8-1.3-1.8-1.3-2.7c0-0.9,0.3-1.6,0.3-1.6s0,0.1,0,0.3c0,0.6,0.3,2,2.4,3c0.9,0.4,1.7,0.6,2.3,0.6
	c1.2,0,1.7-0.6,1.7-0.6S46.6,33.7,44.7,33.7z"/>
<path class="st2" d="M22.3,41.7l-8.9,5.7c0,0-6.7-4.2-9.1-6c-0.6-0.6-1-1-1.3-1.3l-1.6,4.5C0,48.2,2.1,50.8,6,50.1l19.1-3.3
	C24.5,45.9,23.1,44.1,22.3,41.7"/>
<path class="st2" d="M13.4,15.9c2.6,0.2,6.3-0.3,8.6-1.6V8.4c0,0,2.3-0.3,3.7,0.3c1.4,0.6,1.8,1.8,1.8,3.3v6.6l1-2.4
	c0,0,2.7-0.6,6.5-0.1L23.3,2c-2.6-3.1-5.8-2.5-7.1,1.3L11.6,16C12.1,16,12.7,16,13.4,15.9"/>
<path class="st2" d="M51.7,35.7l-0.3-0.4l-4,7.5l1.9-0.3C53.1,41.9,54.2,38.8,51.7,35.7"/>
<path class="st1" d="M23,8.9c-0.2,0-0.4,0-0.4,0v5.2c2.4-1,4.1-2.8,4.1-2.8c0-0.1,0-0.1,0-0.2C26.7,9,24,8.9,23,8.9"/>
</svg>
